inDegrees=no
num_controls=7
num_derivatives=13
num_iterations=87
num_multipliers=7
num_parameters=0
num_slacks=7
num_states=26
objective=0.440940
objective_accelerations=0.019235
objective_balance=0.000703
objective_effort=0.006925
objective_height=0.407764
objective_ligament=0.006312
solver_duration=1281.159636
status=Solve_Succeeded
success=true
DataType=double
version=3
OpenSimVersion=4.5
endheader
time	/jointset/ground_pelvis/pelvis_tilt/value	/jointset/ground_pelvis/pelvis_tx/value	/jointset/ground_pelvis/pelvis_ty/value	/jointset/hip_l/hip_flexion_l/value	/jointset/hip_l/hip_adduction_l/value	/jointset/hip_l/hip_rotation_l/value	/jointset/back/lumbar_extension/value	/jointset/patellofemoral_l/patellar_flexion_l/value	/jointset/knee_l/knee_flexion_l/value	/jointset/knee_l/knee_adduction_l/value	/jointset/knee_l/knee_rotation_l/value	/jointset/ankle_l/ankle_angle_l/value	/jointset/subtalar_l/subtalar_angle_l/value	/jointset/ground_pelvis/pelvis_tilt/speed	/jointset/ground_pelvis/pelvis_tx/speed	/jointset/ground_pelvis/pelvis_ty/speed	/jointset/hip_l/hip_flexion_l/speed	/jointset/hip_l/hip_adduction_l/speed	/jointset/hip_l/hip_rotation_l/speed	/jointset/back/lumbar_extension/speed	/jointset/patellofemoral_l/patellar_flexion_l/speed	/jointset/knee_l/knee_flexion_l/speed	/jointset/knee_l/knee_adduction_l/speed	/jointset/knee_l/knee_rotation_l/speed	/jointset/ankle_l/ankle_angle_l/speed	/jointset/subtalar_l/subtalar_angle_l/speed	/forceset/tau_hip_flexion_l	/forceset/tau_hip_adduction_l	/forceset/tau_hip_rotation_l	/forceset/tau_knee_flexion_l	/forceset/tau_ankle_angle_l	/forceset/tau_subtalar_angle_l	/forceset/tau_lumbar_extension	lambda_cid13_p0	lambda_cid13_p1	lambda_cid13_p2	lambda_cid13_p3	lambda_cid13_p4	lambda_cid13_p5	lambda_cid14_p0	/jointset/ground_pelvis/pelvis_tilt/accel	/jointset/ground_pelvis/pelvis_tx/accel	/jointset/ground_pelvis/pelvis_ty/accel	/jointset/hip_l/hip_flexion_l/accel	/jointset/hip_l/hip_adduction_l/accel	/jointset/hip_l/hip_rotation_l/accel	/jointset/back/lumbar_extension/accel	/jointset/patellofemoral_l/patellar_flexion_l/accel	/jointset/knee_l/knee_flexion_l/accel	/jointset/knee_l/knee_adduction_l/accel	/jointset/knee_l/knee_rotation_l/accel	/jointset/ankle_l/ankle_angle_l/accel	/jointset/subtalar_l/subtalar_angle_l/accel	gamma_cid13_p0	gamma_cid13_p1	gamma_cid13_p2	gamma_cid13_p3	gamma_cid13_p4	gamma_cid13_p5	gamma_cid14_p0
0	0.04692214497525954	0.1085450470363379	0.9028501434401486	0.1266922784136757	-0.3701756054788281	-0.2320088960648794	-0.2144969558742783	0.2051545070142117	0.2051545070141877	-0.1742752646218399	-0.1668865956346781	0.09024313228550125	0.07896687382878953	0	0	0	0	0	0	0	0	0	0	0	0	0	0.08811752912851958	-0.07523263519423667	-0.009446162670916828	-0.2394103994334173	0.1913419600871233	-0.06872093540590161	-0.02087135710446699	31.90090386191735	24.67778397875242	-4.692664988705721	-35.39012369074673	-447.3409755512586	-66.80253184512733	-26.47901670634737	0.2222624518746868	0.334520652620736	-0.2919499372744493	2.593496607047527	-0.0958926286270064	1.628306893271511	-2.45152273704396	5.478024258381016	5.478024258379971	1.206354958158869	-0.4227902566184012	3.223369019487053	0.8438151574923152	1.825888013201405e-09	1.912382997163175e-07	-5.364375616087773e-08	1.784776663175926e-08	1.774160613451634e-08	1.158771280913596e-07	2.427078060125489e-08
0.01	0.04693497009776449	0.108561741384197	0.9028360325649695	0.1268167428370182	-0.370179814582808	-0.2319236091628897	-0.2146203134496183	0.2054217785287069	0.2054217785286727	-0.1742157542588486	-0.1669013785964386	0.09040164162482636	0.07900885242177738	0.002529668141977672	0.003327814511342291	-0.00281349690707179	0.02478914837310419	-0.0008422926266113712	0.01699142598508047	-0.02453235282072892	0.05319159306351328	0.05319159306351175	0.01183021749061585	-0.002922462391822804	0.03155054134751811	0.008351964272431843	0.08697982061926793	-0.08183776507985373	-0.009042927732499477	-0.2375431020812329	0.1860866965770558	-0.06146399480553515	-0.01999163910155259	30.59240124492358	21.58656521644159	-4.007213720099487	-34.48252160892154	-447.8774746763995	-73.16566813081252	-26.47893283925332	0.2630154281252912	0.3302571593295285	-0.2747442997211695	2.406063334868328	-0.0784856449989955	1.724680569946033	-2.433217216738225	5.200315501721762	5.200315501721981	1.160601342703135	-0.2218674166410806	3.098202467552628	0.8243002490237887	4.487397536957335e-10	2.811364028334234e-07	-5.92192159778672e-08	2.868263324526501e-08	-2.042027886242253e-08	1.425693394056329e-07	3.627436565268059e-08
0.02	0.04697203118821993	0.1086113829389555	0.9027940477742594	0.1271859866205681	-0.3701924642261264	-0.2316703839772832	-0.2149848196855953	0.2062130837080804	0.2062130837080822	-0.1740400924813097	-0.1669443648194102	0.09087111753265932	0.07913303329487141	0.00484719359468564	0.006589441379862156	-0.005574783106205998	0.04895587204325624	-0.001688107866050664	0.03358765672294176	-0.04822973212742317	0.1048067329824393	0.1048067329824367	0.02323028290883682	-0.005640652230724697	0.06219331370176693	0.01644045602106774	0.08584211211012256	-0.08844289496546703	-0.008639692793782216	-0.235675804729074	0.1808314330669959	-0.05420705420516625	-0.01911192109853437	29.30982253068705	18.49994321341716	-3.332931413510947	-33.66068888026334	-447.9894003065473	-79.42869815617283	-26.47857636413412	0.1798339140213382	0.3212831240556998	-0.2815077956869088	2.46901166645723	-0.09659715119259521	1.549267843827653	-2.284528034236751	5.162733629463688	5.162733629462748	1.12032454367991	-0.3819357460343309	3.041815220832578	0.791120652732937	-9.284085058099378e-10	3.710345059505292e-07	-6.479467579485668e-08	3.951749985877077e-08	-5.85821638593614e-08	1.692615507199061e-07	4.827795070410629e-08
0.03	0.04703152516661441	0.1086929402184217	0.9027246569020455	0.1277941654249475	-0.3702134814669499	-0.2312539375576733	-0.2155818717594909	0.2075131804555403	0.2075131804555217	-0.1737522475875695	-0.1670143217575862	0.09164224687581279	0.07933686358463962	0.007058368081895862	0.009674425428759485	-0.008298104012605672	0.07258794050883932	-0.002509444271333483	0.04963262858486291	-0.07102669304404546	0.1549679268483805	0.1549679268483738	0.03427866559882966	-0.008318283178769915	0.09184655142124869	0.02428069002401605	0.08315499027755982	-0.08137314971397208	-0.007886454545107257	-0.2310204899342537	0.174454512332257	-0.05798767437838372	-0.01719798296560042	26.99628391210405	20.40238582282264	-3.47110495585441	-31.58294556447705	-448.3158843221406	-74.88668426668416	-26.47786845906274	0.2427759130793686	0.2949756284028852	-0.2669630100686622	2.296512541155568	-0.07405867411193448	1.621782056200811	-2.254181678436975	4.906099112919941	4.906099112919776	1.088143902172068	-0.2058273110931061	2.899187888511718	0.7736871608547501	-3.388439801487041e-09	4.008594342672119e-07	-4.379014993089499e-08	4.410182654322979e-08	-9.475590901308496e-08	1.463738190734628e-07	5.153702234605209e-08
0.04	0.0471133342292634	0.1088039212549943	0.9026281890663764	0.1286359065348692	-0.370242543429615	-0.2306791073796705	-0.216402273754169	0.209307546511167	0.2093075465111675	-0.1733557091128213	-0.1671100851136975	0.09270433056436099	0.07961773869179389	0.009310210449534976	0.01247419280115687	-0.01099017579726416	0.09566833315628145	-0.003297052233245016	0.06526440839983444	-0.09289971628308179	0.2036605946247467	0.2036605946247383	0.04496899910934578	-0.01080193580295732	0.1203841827809537	0.03184941949812164	0.08046786844487661	-0.07430340446246229	-0.007133216296080023	-0.2263651751395678	0.1680775915974956	-0.06176829455159659	-0.01528404483273649	24.70637847405839	22.31297977984913	-3.624616086549035	-29.58076380999587	-448.2407601876986	-70.24124162383515	-26.47658028547629	0.1879674901076953	0.2642397887551781	-0.2752579713386463	2.358676502829172	-0.08985146251832019	1.466629434437706	-2.099740498719289	4.869028411548808	4.86902841154835	1.048714707784623	-0.3431400812628709	2.818693948876624	0.7368197469642345	-5.870798582446032e-09	4.29445740423061e-07	-2.223758312505801e-08	4.85572761157497e-08	-1.308886615927216e-07	1.2246382056185e-07	5.46157947424416e-08
0.05	0.0472174736328819	0.1089416302480455	0.9025048719668258	0.1297058830600817	-0.3702794751355171	-0.2299505870906267	-0.2174367323421737	0.2115815767632507	0.2115815767632233	-0.17285438870821	-0.1672302824496978	0.09404633357602542	0.07997283130876585	0.01149927866260166	0.01503560926110054	-0.01367291274334571	0.1182400996562532	-0.00407937438149525	0.0803707057535369	-0.1138484737295686	0.2508952159028156	0.2508952159027802	0.05523748608785333	-0.01319423460348373	0.1478466899495981	0.03913523606106022	0.07841970727991253	-0.07760635510844764	-0.006393839397787958	-0.22319516913445	0.1607862283760174	-0.05634368376410023	-0.01377412055554699	22.64698275810955	20.13209704705335	-3.064969815586494	-28.05750896102261	-448.4621085502974	-74.35188118306134	-26.47449680039512	0.2316207398884111	0.2473028384434112	-0.2647583204569369	2.193396322017124	-0.07099487934429663	1.522304026514528	-2.070914228627623	4.613132055605399	4.613132055601256	1.007345987730082	-0.1807930931304745	2.684582682314838	0.7193173719519158	-5.171550641092955e-09	4.695184373199145e-07	-4.051856377192678e-08	5.32215118726385e-08	-1.489275135289628e-07	1.522468154467209e-07	6.154390652674467e-08
